<svg width="101" height="101" viewBox="0 0 101 101" fill="none" xmlns="http://www.w3.org/2000/svg">
<path d="M84.1667 54.7083C84.1667 75.75 69.4375 86.2708 51.9309 92.3729C51.0141 92.6836 50.0183 92.6687 49.1113 92.3308C31.5625 86.2708 16.8334 75.75 16.8334 54.7083V25.25C16.8334 24.1339 17.2768 23.0635 18.066 22.2743C18.8552 21.485 19.9256 21.0417 21.0417 21.0417C29.4584 21.0417 39.9792 15.9917 47.3017 9.595C48.1933 8.83329 49.3274 8.41478 50.5 8.41478C51.6727 8.41478 52.8068 8.83329 53.6984 9.595C61.063 16.0338 71.5417 21.0417 79.9584 21.0417C81.0745 21.0417 82.1449 21.485 82.9341 22.2743C83.7233 23.0635 84.1667 24.1339 84.1667 25.25V54.7083Z" stroke="#008FF5" stroke-width="2" stroke-linecap="round" stroke-linejoin="round"/>
</svg>
